<?xml version="1.0" standalone="no"?>
<!DOCTYPE svg PUBLIC "-//W3C//DTD SVG 20010904//EN"
 "http://www.w3.org/TR/2001/REC-SVG-20010904/DTD/svg10.dtd">
<svg version="1.0" xmlns="http://www.w3.org/2000/svg"
 width="108.000000pt" height="108.000000pt" viewBox="0 0 108.000000 108.000000"
 preserveAspectRatio="xMidYMid meet">
<metadata>
Created by potrace 1.14, written by Peter Selinger 2001-2017
</metadata>
<g transform="translate(0.000000,108.000000) scale(0.100000,-0.100000)"
fill="#000000" stroke="none">
<path d="M467 989 c-136 -20 -275 -125 -335 -251 -132 -276 36 -597 340 -649
295 -49 569 225 518 519 -44 253 -272 419 -523 381z m257 -73 c89 -44 155
-111 199 -204 30 -62 32 -75 32 -172 0 -107 -13 -154 -61 -229 l-16 -23 -31
30 c-58 56 -85 62 -305 62 -220 1 -240 -3 -305 -59 l-36 -32 -15 23 c-48 73
-61 121 -61 228 0 97 2 110 31 170 80 168 223 254 407 246 77 -3 98 -8 161
-40z m-204 -588 c16 -10 24 -10 41 0 27 17 54 7 79 -28 26 -37 25 -48 -5 -62
-22 -10 -25 -17 -25 -64 0 -38 -4 -53 -16 -58 -20 -8 -72 -7 -102 1 -22 5 -23
10 -20 59 2 32 -1 54 -7 54 -5 0 -18 7 -29 15 -18 13 -18 15 3 49 29 47 48 54
81 34z"/>
<path d="M460 814 c-46 -20 -87 -60 -112 -108 -29 -57 -22 -149 15 -205 91
-137 293 -126 368 21 22 44 27 125 10 169 -15 42 -72 100 -116 120 -49 22
-118 24 -165 3z m17 -121 c-3 -10 -5 -2 -5 17 0 19 2 27 5 18 2 -10 2 -26 0
-35z m120 0 c-4 -17 -4 -17 -12 0 -4 9 -4 25 0 35 8 16 8 16 12 0 3 -10 3 -26
0 -35z m93 -78 c-27 -80 -116 -135 -196 -120 -39 7 -114 70 -114 95 0 7 17 -6
38 -29 58 -66 138 -70 206 -11 30 27 38 41 61 105 13 35 17 -3 5 -40z"/>
</g>
</svg>
