<?xml version="1.0" standalone="no"?>
<!DOCTYPE svg PUBLIC "-//W3C//DTD SVG 20010904//EN"
 "http://www.w3.org/TR/2001/REC-SVG-20010904/DTD/svg10.dtd">
<svg version="1.0" xmlns="http://www.w3.org/2000/svg"
 width="108.000000pt" height="108.000000pt" viewBox="0 0 108.000000 108.000000"
 preserveAspectRatio="xMidYMid meet">
<metadata>
Created by potrace 1.14, written by Peter Selinger 2001-2017
</metadata>
<g transform="translate(0.000000,108.000000) scale(0.100000,-0.100000)"
fill="#000000" stroke="none">
<path d="M421 974 c-151 -40 -276 -167 -315 -319 -43 -161 4 -324 124 -439 90
-87 187 -126 310 -126 205 0 384 137 436 334 29 110 10 248 -49 348 -32 54
-121 139 -175 167 -97 50 -226 63 -331 35z m252 -30 c240 -78 362 -364 250
-588 -37 -75 -43 -80 -60 -56 -8 11 -35 32 -61 47 -46 28 -50 28 -240 31 -219
4 -262 -4 -326 -62 l-37 -34 -14 21 c-139 213 -59 505 168 617 104 51 209 59
320 24z m-41 -634 c21 -23 38 -44 38 -48 0 -4 -14 -16 -30 -27 -28 -19 -30
-23 -24 -67 6 -45 5 -47 -22 -54 -36 -9 -72 -9 -107 0 -27 6 -27 8 -21 55 6
47 5 49 -25 67 -17 10 -31 21 -31 24 0 4 17 25 38 48 36 39 43 42 92 42 49 0
56 -3 92 -40z"/>
<path d="M492 820 c-59 -14 -112 -57 -138 -113 -38 -82 -28 -159 28 -223 105
-120 291 -89 352 58 63 150 -82 317 -242 278z m-8 -96 c8 -21 -3 -56 -15 -49
-12 8 -12 65 0 65 5 0 12 -7 15 -16z m121 -4 c7 -21 0 -40 -16 -40 -5 0 -9 14
-9 30 0 34 15 40 25 10z m95 -64 c0 -56 -45 -122 -102 -152 -35 -18 -111 -18
-148 1 -33 17 -70 61 -70 83 0 10 12 3 33 -20 84 -92 227 -55 259 68 13 48 28
58 28 20z"/>
<path d="M528 323 c6 -2 18 -2 25 0 6 3 1 5 -13 5 -14 0 -19 -2 -12 -5z"/>
</g>
</svg>
